<?xml version="1.0" encoding="UTF-8"?>
<svg enable-background="new 0 0 2117.066 1650.031" version="1.1" viewBox="0 0 2117.066 1650.031" xmlns="http://www.w3.org/2000/svg">
 <style type="text/css">.st0{fill:#171730;stroke:#171730;} .st1{fill:#FFFFFF;stroke:#FFFFFF;} .st2{fill:#C2C2CE;stroke:#C2C2CE;} .st3{fill:#8D8D8D;stroke:#8D8D8D;}</style>
 <path class="st0" d="m365.5 31.423c1.416-2.134 2.417-4.703 4.627-6.157 16.355-1.133 32.521 1.775 48.536 4.684 25.516 6.078 50.531 13.549 74.816 23.656 23.583 9.815 46.323 21.97 68.11 35.29 14.517 8.875 28.641 18.386 42.382 28.419 37.809 26.365 71.955 57.526 104.76 89.783 2.889 2.569 5.779 7.46 10.312 5.156 31.14-11.808 62.889-22.009 95.078-30.551 42.358-11.24 84.485-20.092 128.21-23.334 32.396-2.403 64.929-2.955 97.387-1.653 14.201 0.57 29.154 3.324 43.044 0.822 15.246-2.747 31.124-1.913 46.598-1.885 38.773-0.472 77.224 5.552 115.28 12.484 45.099 9.103 89.651 21.171 132.98 36.752 9.934 2.908 19.188 8.178 29.443 9.934 12.672-10.935 23.551-23.891 36.393-34.712 14.315-12.181 27.667-25.458 42.776-36.714 30.085-24.816 62.21-47.214 96.412-66.025 34.334-19.717 71.294-34.863 109.73-44.4 20.397-4.457 41.133-9.103 62.134-7.649 22.965 33.881 40.982 71.502 50.878 111.33 3.163 12.732 5.925 25.326 7.499 38.349 1.639 13.559 2.684 27.189 3.133 40.839 0.439 13.377 0.466 26.804-0.366 40.162-1.649 26.492-3.535 52.585-9.526 78.59-1.519 6.595-3.157 13.226-4.777 19.753-2.697 10.868-6.053 21.55-8.937 32.336-18.13 58.527-43.702 114.77-75.543 167.1-2.096 2.417-0.604 5.439 0.246 8.045 11.067 34.485 24.778 68.593 45.779 98.32 10.406 15.694 24.25 28.687 38.055 41.322 27.611 22.266 63.645 33.409 98.962 32.238 18.772-0.057 37.337-4.174 55.373-9.178 22.361-6.025 42.399-17.923 62.758-28.593 5.213-2.663 10.312-6.799 16.563-6.176 2.989 0.301 3.67 16.822 3.995 19.067 3.474 23.994 8.289 48.082 9.8 72.301 0.955 15.334 0.972 30.727 0.042 46.063-3.107 51.22-15.666 101.81-36.7 148.61-6.21 13.817-13.137 27.31-20.688 40.442-2.795 4.721-5.76 9.424-7.668 14.618 8.65-2.814 15.978-8.499 24.06-12.578 26.025-13.56 51.464-28.253 77.507-41.719-5.364 16.544-14.731 31.464-22.323 47.045-14.693 30.595-30.463 60.661-45.723 90.973-35.184 65.061-78.622 125.95-131.1 178.21-69.084 70.066-153.64 125.06-246.23 158.58-5.25 1.983-10.878 3.229-15.656 6.27-0.227 0.68-0.68 2.002-0.906 2.682 9.883 0.431 19.371 0.844 29.177 2.195 30.617 4.218 61.424 7.306 92.188 10.648 0.996 0.108 2.054 0.241 2.829 0.877 4.245 3.486-6.497 5.053-8.274 5.578-4.971 1.467-9.904 3.058-14.822 4.691-9.84 3.266-19.62 6.716-29.539 9.741-39.377 12.597-78.565 25.798-117.87 38.603-20.755 6.327-41.851 11.747-63.381 14.466-39.887 8.555-80.888 6.591-121.42 6.648-12.616-0.396-25.326 0.302-37.772-2.021-15.902-0.472-31.521-3.607-47.309-4.627-5.93-1.303-8.668 4.74-12.238 8.14-12.484 12.767-24.552 26.327-39.698 36.072-10.897 7.97-22.833 14.334-35.128 19.868-2.625 1.133-6.365 2.04-8.536-0.34-9.594-8.536-18.678-17.658-28.857-25.477-12.106 8.008-23.607 17.167-37.111 22.814-17.633 7.374-35.002 12.823-54.038 15.309-19.172 2.504-38.667 2.505-57.844 0.044-20.889-2.68-40.904-8.158-59.678-17.735-11.156-5.691-21.043-13.464-31.331-20.526-11.048 7.705-20.019 17.923-30.444 26.383-5.345 2.323-10.425-2.285-15.165-4.212-27.989-12.767-51.785-33.447-71.351-56.96-1.832-1.681-3.097-4.381-5.685-4.816-11.501-0.396-22.55 3.796-34.013 4.023-16.431 1.058-32.672 4.06-49.179 3.891-28.329 0.378-56.657 0.434-84.986-0.189-37.073-3.173-74.07-9.216-109.65-20.34-57.526-18.527-114.62-38.281-172.41-55.883-0.094-0.661-0.302-2.002-0.397-2.663 20.392-3.078 40.869-5.555 61.349-7.959 19.813-2.326 39.516-5.407 59.413-6.056 1.409-0.046 2.817-0.102 4.224-0.188-0.208-0.68-0.642-2.021-0.869-2.701-18.338-7.857-37.526-13.976-55.808-22.134-62.418-28.064-120.98-65.099-172.12-110.6-26.044-22.946-50.161-47.97-72.88-74.183-25.817-30.236-48.499-62.984-69.594-96.639-29.141-47.875-52.03-99.169-77.828-148.86-4.551-9.405-9.991-18.546-12.823-28.669 26.742 14.013 53.126 28.839 79.83 43.022 7.233 3.758 13.881 8.82 21.738 11.294-5.628-12.634-13.692-24.023-19.49-36.601-11.577-22.304-20.586-45.836-28.234-69.745-5.966-18.649-10.955-37.539-14.074-56.897-1.613-10.012-2.181-20.447-2.827-30.564-1.052-16.49-0.779-33.007-0.531-49.517 0.453-33.088 9.197-65.194 13.938-97.772 2.247 0.019 4.627-0.019 6.742 0.982 20.472 10.425 40.208 22.644 61.945 30.425 35.959 12.276 75.543 17.526 112.58 6.969 23.192-6.667 45.326-18.3 62.21-35.751 37.526-34.542 58.659-82.531 73.919-130.27 1.341-5.194 4.778-10.859 2.644-16.147-45.232-77.432-78.622-162.63-91.407-251.65-3.343-39.698-3.985-79.736-0.019-119.4 4.873-31.615 13.352-62.795 26.497-91.993 7.743-17.98 17.941-34.712 27.913-51.502m1330.6 123.51c-21.794 10.916-43.23 22.701-63.003 36.997-24.721 17.073-45.987 38.508-66.421 60.397-24.627 28.518-46.195 59.622-72.068 87.064-3.343 0.812-5.552 4.287-8.329 6.232-9.613 9.027-22.701 14.202-35.864 13.957-14.599-1.757-28.291-8.669-39.471-18.055-12.011-10.935-23.286-23.06-31.124-37.394 8.177-13.069 19.452-23.909 29.254-35.77 2.342-3.343 7.252-5.968 6.648-10.576-79.906-33.031-164.29-56.261-250.52-64.193-34.013-2.304-68.801-3.324-102.1 5.25-16.166-2.72-32.446-6.251-48.99-5.873-20.113 0.227-40.397-1.152-60.321 2.04-9.348 0.529-18.735 0.529-27.932 2.323-74.693 10.066-147.35 32.2-217.07 60.359-0.869 3.286 1.907 5.685 3.739 8.008 10.028 11.35 20.718 22.21 29.764 34.391 4.06 5.118-2.247 10.085-4.74 14.353-15.109 21.341-36.072 42.172-63.362 45.08-13.56 0.397-27.554-4.816-36.941-14.769-2.361-1.775-4.23-4.929-7.214-5.401-30.973-31.256-54.183-69.216-85.099-100.57-33.881-35.807-74.958-64.929-120.11-84.684-8.839 12.408-10.841 28.215-13.9 42.814-4.023 27.309-2.247 55.09-1.813 82.588 5.76 66.78 21.813 132.46 44.457 195.49 4.986 12.672 8.499 26.176 15.505 37.923-0.132 7.101 3.097 15.789-2.682 21.511-4.023 5.118-11.558 4.703-16.166 8.65-13.031 48.536-30.973 96.676-60.113 138-21.02 30.444-49.386 56.128-83.06 71.804-16.978 8.838-35.902 12.484-54.467 16.355-18.074 1.227-36.242 0.888-54.316 0.245-21.851-3.21-43.645-7.875-64.155-16.261-5.609-2.209-10.859-5.345-16.733-6.799-5.76 23.966-4.948 48.782-5.552 73.239-1.246 23.834 5.987 46.912 10.538 70.047l0.869-1.435c0.529 6.516 2.927 12.672 4.797 18.924 16.638 53.164 44.023 102.44 77.073 147.1 10.368 15.128 21.133 30.01 33.145 43.891-0.585 0.944-1.756 2.833-2.361 3.777-21.511 1.832-42.191-5.382-62.342-11.879-15.6-5.496-30.482-12.823-44.948-20.774 2.266 8.517 7.554 15.751 11.596 23.494 19.868 36.959 42.701 72.351 68.461 105.48 9.481 12.465 20.113 23.966 29.991 36.129 72.427 81.152 165.16 144.89 268.56 179.47 42.701 15.071 87.309 25.307 132.54 28.367 0.019 4.098-3.551 6.553-6.176 9.197-7.252 6.78-15.694 12.068-23.928 17.564-14.939 10.085-32.484 15.486-49.934 19.264 0.094 0.869 0.283 2.606 0.378 3.475 52.748 16.015 108.31 19.981 163.19 18.489 15.165 0.416 30.142-2.229 45.269-2.701 8.026-1.247 16.355-0.718 24.212-3.041-0.246-2.266-0.907-4.419-1.851-6.383-16.846-33.05-26.969-69.651-29.556-106.59-11.388-1.246-22.852-0.132-34.259-0.586-20.944 0.095-41.738-2.549-62.455-5.269-33.22-5.401-66.308-12.616-97.847-24.514-8.404-3.475-18.036-5.213-24.797-11.652 23.626 0.453 46.686-9.821 63.23-26.478 0.113-1.02 0.34-3.041 0.434-4.042-1.19-0.397-3.588-1.19-4.778-1.586-61.454-32.427-117.81-74.297-167.31-123-27.403-28.121-53.56-57.507-76.809-89.16-42.323-58.093-77.772-121.68-101.42-189.67 5.307-1.738 11.067-0.302 16.582-0.604 32.351-1.057 64.174-9.575 93.617-22.89 32.03-14.957 62.55-34.145 87.063-59.83 20.793-20 37.715-44.892 45.099-73.013 3.267-11.747 1.473-23.985 2.285-35.921 13.787-3.211 27.932-4.419 41.889-6.516 27.082-0.567 54.429-2.078 81.247 2.323 35.656 5.118 70.331 16.487 102.68 32.257 33.201 17.262 64.797 38.395 91.011 65.25 2.229 1.756 4.155 5.307 7.611 4.287-3.229-15.921-3.078-32.276-2.304-48.404 0.076-8.083 3.041-15.713 6.648-22.814 1.247-2.568 2.644-6.024 6.214-5.439 13.56 33.541 32.993 64.703 56.487 92.295 18.432 20.227 38.168 40.284 63.003 52.597 5.439 2.417 10.897 6.346 17.186 5.288 19.585-34.089 31.993-71.653 43.135-109.18 10.859-38.886 19.868-78.32 27.044-118.04l0.642 1.586c1.7-8.499 2.663-17.111 4.193-25.628 2.323-18.716 7.195-37.054 8.612-55.883 1.266-8.177 3.211-16.261 3.456-24.552 0.567-3.815 0.34-8.952 4.608-10.595 1.87 5.269 2.493 10.859 2.682 16.449 3.664 28.404 8.574 56.639 13.428 84.873 11.917 63.06 25.609 126.16 47.989 186.46 7.347 18.64 14.542 37.658 25.364 54.599 3.003 0.189 6.119-0.132 8.895-1.454 13.371-5.76 25.741-13.692 36.978-22.908 27.63-23.154 50.633-51.464 69.009-82.399 7.913-14.089 15.996-28.329 20.359-44.004 0.755-0.132 2.285-0.434 3.041-0.585 5.666 6.667 8.404 15.392 10.463 23.796 2.417 17.96 1.341 36.261-1.548 54.108 3.343 0.415 5.25-2.852 7.554-4.646 57.016-56.828 134.34-93.088 214.58-99.849 34.297-0.661 69.424-2.021 102.66 7.781 0.113 11.785-1.171 23.853 1.964 35.392 6.062 22.776 18.263 43.683 34.051 61.077 22.587 26.553 51.388 47.252 82.096 63.456 33.787 17.904 71.407 29.424 109.74 30.67 5.307 0.529 11.331-1.567 16.204 0.869-5.326 16.6-12.219 32.653-19.226 48.593-30.501 67.932-71.067 131.29-119.72 187.63-48.253 56.582-105.78 105.14-169.05 144.12-11.823 7.46-24.514 13.484-36.147 21.171-2.644-1.058-4.929 1.53-6.95 2.795 5.987 9.462 16.185 15.052 25.666 20.453 11.785 6.912 25.685 8.555 39.112 8.952-4.212 4.155-9.953 5.874-15.297 8.008-46.535 17.526-95.581 28.461-145.16 32.295-19.547 2.153-39.302 0.245-58.867 1.643-2.682 33.598-11.52 66.761-25.439 97.451-2.134 5.439-6.365 10.538-5.722 16.714 21.133 2.002 42.361 2.172 63.475 4.457 44.873 1.058 90.218 0.264 134.13-10.009 11.974-3.116 24.721-4.249 35.883-9.896-0.755-0.567-2.228-1.719-2.965-2.285-26.195-5.288-50.576-18.074-70.727-35.486-2.908-2.946-7.441-5.477-7.026-10.179 57.734-3.645 113.82-20.17 167.38-41.379 71.879-29.537 138.13-72.71 194.18-126.54 22.115-19.547 41.095-42.21 60.17-64.627 25.836-32.842 49.915-67.177 70.085-103.82 6.308-12.238 14.24-23.702 19.339-36.525-13.768 7.026-27.422 14.278-42.021 19.528-22.078 8.574-45.704 15.203-69.613 12.937-0.208-0.812-0.642-2.436-0.869-3.249 2.21-2.417 4.57-4.703 6.724-7.158 23.229-29.311 45.93-59.207 64.948-91.464 20.057-34.712 35.845-71.86 46.912-110.39 2.814-5.798 4.381-12.087 5.779-18.357 4.759-21.643 8.895-43.947 5.25-66.119-1.435-7.668-0.623-15.505-1.549-23.211-1.756-11.823-0.057-24.23-4.816-35.486-5.458 1.303-10.331 4.193-15.467 6.308-20.17 8.838-42.078 12.313-63.513 16.563-16.865 1.114-33.787 0.793-50.633 0.397-36.563-4.249-72.011-18.791-100.53-42.172-27.328-22.493-48.197-51.747-64.533-82.908-17.262-31.955-28.197-66.837-38.036-101.62-6.459-3.305-14.92-4.608-18.244-11.917-3.985-5.949-1.058-12.88 0.529-19.056 20.094-47.573 35.165-97.281 46.1-147.72 7.12-36.695 13.617-73.73 13.541-111.22 0.68-33.541-0.585-68.536-15.732-99.188-1.492-0.021-2.87 0.338-4.136 1.074m-338.85 852.98c-31.766 10.066-63.91 21.303-90.878 41.436-1.756 0.925-2.927 3.003-1.794 4.91 15.77 11.275 32.049 22.531 50.727 28.385 16.336 4.646 34.278 3.72 50.085-2.568 15.675-6.308 31.747-12.219 45.609-22.134 32.483-22.342 61.756-48.895 90.878-75.354 0.34-1.228 1.039-3.664 1.397-4.892-49.254 6.855-98.262 16.242-146.02 30.217m-735.2-29.33c-1.926 4.211 2.833 6.194 5.288 8.687 28.82 25.534 57.281 51.785 89.462 73.126 12.465 8.536 26.893 13.371 40.718 19.207 20.227 8.385 44.023 8.008 63.702-1.719 13.56-6.61 26.78-14.353 38.244-24.193-0.34-3.569-3.569-5.439-6.081-7.384-12.842-9.405-27.328-16.242-41.908-22.474-43.06-17.809-88.65-28.48-134.34-37.054-18.282-3.172-36.545-7.006-55.09-8.196m403.66 27.233c-22.247 4.363-44.212 11.256-64.136 22.21 5.911 7.875 15.316 12.805 19.603 22.134-11.577 6.516-21.247 15.788-30.595 25.08-38.621 37.148-62.795 86.497-79.755 136.68-4.835 16.865-10.746 33.598-12.861 51.105-2.021-0.151-4.665-0.095-5.118-2.587-7.101-17.734-12.351-36.147-17.205-54.599-2.058-5.496-2.172-11.331-2.568-17.073-0.737 0.094-2.21 0.264-2.946 0.359-2.984 3.947-3.683 9.027-5.383 13.598-16.091 48.971-28.593 99.698-30.217 151.39 0.831 10.104 1.511 20.246 3.362 30.217-1.87 18.451 3.041 36.544 7.724 54.221 14.939 52.389 47.12 101.02 93.409 130.63 2.096 1.605 5.42 2.682 7.328 0.132 25.798-23.286 55.543-42.285 87.819-55.241 22.72-8.177 46.554-15.033 70.935-13.843 14.221-0.585 28.121 2.908 41.813 6.365 39.698 10.935 76.317 31.974 106.89 59.415 2.927 2.078 6.289 7.045 10.198 3.74 48.31-29.896 81.058-80.775 95.6-135.03 4.249-16.412 8.763-33.277 6.856-50.387 4.042-23.928 2.927-48.517-0.302-72.484-5.628-37.866-15.184-75.09-27.46-111.31-1.36-3.872-1.624-8.536-5.383-10.916-4.891 13.012-7.007 26.95-11.313 40.208-2.871 9.519-7.025 18.659-9.046 28.442-1.02 0.321-3.06 0.944-4.079 1.246-1.435-1.058-2.814-2.115-4.136-3.192-0.208-5.326-1.87-10.406-3.059-15.524-9.745-37.016-23.078-73.315-42.568-106.36-18.319-32.427-43.23-61.341-73.504-83.135 6.119-8.348 14.693-14.353 21.36-22.153-0.963-3.267-5.382-3.796-7.932-5.477-23.494-11.218-48.99-18.244-74.976-20.17-19.415-3.136-39.075-0.491-58.358 2.322z"/>
 <path class="st1" d="m1696.1 154.94c1.265-0.736 2.644-1.095 4.136-1.077 15.146 30.652 16.412 65.647 15.732 99.188 0.076 37.488-6.421 74.523-13.541 111.22-10.935 50.444-26.006 100.15-46.1 147.72-1.435 0.982-2.89 1.907-4.344 2.795-12.578-10.746-18.64-27.214-21.681-43.06-2.342-16.11-2.229-33.05 3.286-48.537 2.323-6.78 6.516-12.672 9.481-19.131-8.102-6.988-19.075-9.273-29.235-11.596-10.878-1.889-22.304 0-32.823-3.815 1.719-17.96 9.009-34.825 16.053-51.237 1.076-2.795 1.945-5.685 2.549-8.593-32.672-2.946-66.1 0.453-97.432 10.274-2.474 0.812-5.062 0.491-7.573 0.302 25.873-27.441 47.441-58.546 72.068-87.064 20.435-21.889 41.7-43.324 66.421-60.397 19.774-14.294 41.209-26.079 63.003-36.995z"/>
 <path class="st1" d="m424.83 154.1c45.156 19.755 86.232 48.876 120.11 84.684 30.916 31.35 54.127 69.311 85.099 100.57-2.21 0.623-4.495 1.549-6.78 0.718-33.05-9.084-67.725-14.807-102.02-11.218 2.077 10.538 8.008 19.773 11.161 30.01 2.946 9.575 7.063 19.188 6.837 29.405-12.842 3.89-26.61 2.021-39.49 5.817-7.705 2.285-15.996 4.344-22.04 9.972 3.89 8.782 9.537 16.865 11.539 26.421 5.42 23.928 2.663 50.236-9.726 71.653-2.417 4.495-6.383 7.8-10.444 10.784-7.007-11.747-10.519-25.25-15.505-37.923-22.644-63.022-38.697-128.71-44.457-195.49-0.434-27.498-2.21-55.279 1.813-82.588 3.06-14.599 5.062-30.407 13.9-42.815z"/>
 <path class="st2" d="m1063.1 198.85c33.296-8.574 68.083-7.554 102.1-5.25 86.233 7.932 170.61 31.162 250.52 64.193 0.604 4.608-4.306 7.233-6.648 10.576-9.802 11.86-21.077 22.701-29.254 35.77 7.838 14.334 19.112 26.459 31.124 37.394 11.181 9.386 24.873 16.298 39.471 18.055 13.163 0.246 26.251-4.929 35.864-13.957 2.776-1.945 4.986-5.42 8.329-6.232 2.512 0.189 5.099 0.51 7.573-0.302 31.331-9.821 64.759-13.22 97.432-10.274-0.604 2.908-1.473 5.798-2.549 8.593-7.044 16.412-14.334 33.277-16.053 51.237 10.519 3.815 21.945 1.926 32.823 3.815 10.161 2.323 21.133 4.608 29.235 11.596-2.965 6.459-7.158 12.351-9.481 19.131-5.515 15.486-5.628 32.427-3.286 48.537 3.041 15.845 9.103 32.314 21.681 43.06 1.454-0.888 2.908-1.813 4.344-2.795-1.587 6.176-4.514 13.107-0.529 19.056 3.324 7.309 11.785 8.612 18.244 11.917 9.839 34.788 20.774 69.67 38.036 101.62 16.336 31.162 37.205 60.416 64.533 82.908 28.517 23.381 63.966 37.923 100.53 42.172 16.846 0.397 33.768 0.718 50.633-0.397 21.435-4.249 43.343-7.724 63.513-16.563 5.137-2.115 10.009-5.005 15.467-6.308 4.759 11.256 3.059 23.664 4.816 35.486 0.925 7.705 0.113 15.543 1.549 23.211 3.645 22.172-0.491 44.476-5.25 66.119-1.398 6.27-2.965 12.559-5.779 18.357 0.076-3.834 0.038-7.63-0.019-11.426-7.252 14.674-16.601 28.442-29.367 38.867-8.253 6.421-16.261 14.353-26.894 16.431 1.115-10.557 4.268-20.737 6.289-31.124 3.154-14.127 1.492-28.688 1.964-43.003-0.17-7.328 0.888-15.033-1.983-21.945-11.162-0.793-22.191 1.926-33.333 1.643-26.025-1.851-52.427-1.341-77.885-7.875-23.569-6.761-47.045-14.92-67.875-28.102-26.232-15.751-48.31-38.149-64.155-64.268-18.791-31.558-29.915-67.366-34.164-103.74-0.925-5.647-1.379-12.578-7.101-15.543-28.291-17.488-61.095-26.478-93.843-30.803-19.66-2.455-39.415-0.774-59.113-0.359 1.605-7.592 7.781-12.993 12.144-19.075 10.935-14.297 23.532-27.177 35.354-40.699-2.795-4.363-8.99-3.248-13.409-4.004-74.467-2.852-148.92 15.052-215.92 47.12-31.331 14.655-61.303 32.2-89.575 52.106-7.762 5.288-14.731 11.709-23.003 16.204-6.723-24.873-0.491-50.538 2.191-75.468-14.712 2.512-27.932 9.915-41.473 15.807-34.297 16.185-67.366 35.732-95.505 61.322-3.475 3.003-4.835 7.498-5.949 11.823-4.854-28.234-9.764-56.469-13.428-84.873-0.189-5.59-0.812-11.18-2.682-16.449-4.268 1.643-4.042 6.78-4.608 10.595-0.245 8.291-2.191 16.374-3.456 24.552-1.416 18.829-6.289 37.167-8.612 55.883-1.53 8.517-2.493 17.129-4.193 25.628l-0.642-1.586c0.34-6.969 2.002-14.051 0.567-20.945-5.099-8.121-13.919-12.823-21.02-18.961-28.31-22.436-60.435-39.528-93.485-53.843-8.82-3.777-17.507-8.121-26.893-10.255 2.417 19.943 7.177 39.83 5.987 60.076-0.378 5.477-1.473 10.991-3.966 15.939-14.051-8.782-26.874-19.433-40.888-28.291-62.758-40.586-133.26-70.501-207.37-81.927-21.133-2.436-42.361-5.213-63.683-4.759-9.764 0.189-20.132-0.718-29.084 3.985 9.707 11.464 20.453 22.04 29.594 34.032 5.987 8.159 14.599 14.995 17.224 25.194-20.51 1.851-41.473-1.964-61.643 3.343-29.348 5.685-57.998 15.845-83.494 31.577-5.496 3.097-6.138 9.839-7.214 15.411-4.948 33.466-15.996 66.138-33.145 95.354-23.343 39.207-60.491 69.632-103.08 85.798-19.868 7.365-40.227 14.108-61.436 16.091-27.913 5.798-56.582 1.152-84.703 3.551-5.288 16.525-3.003 34.448-1.586 51.445 1.02 15.071 5.25 29.632 7.082 44.57-13.994-5.534-25.42-15.883-35.902-26.402-9.178-9.122-15.524-20.472-21.303-31.917 0.227 3.966 0.548 7.97 0.831 11.992l-0.869 1.435c-4.551-23.135-11.785-46.213-10.538-70.047 0.604-24.457-0.208-49.273 5.552-73.239 5.873 1.454 11.124 4.589 16.733 6.799 20.51 8.385 42.304 13.05 64.155 16.261 18.074 0.642 36.242 0.982 54.316-0.245 18.565-3.872 37.488-7.517 54.467-16.355 33.673-15.675 62.04-41.36 83.06-71.804 29.141-41.322 47.082-89.462 60.113-138 4.608-3.947 12.144-3.532 16.166-8.65 5.779-5.722 2.55-14.41 2.682-21.511 4.06-2.984 8.026-6.289 10.444-10.784 12.389-21.417 15.146-47.724 9.726-71.653-2.002-9.556-7.649-17.639-11.539-26.421 6.043-5.628 14.334-7.687 22.04-9.972 12.88-3.796 26.648-1.926 39.49-5.817 0.227-10.217-3.891-19.83-6.837-29.405-3.154-10.236-9.084-19.471-11.161-30.01 34.297-3.588 68.971 2.134 102.02 11.218 2.285 0.831 4.57-0.094 6.78-0.718 2.984 0.472 4.854 3.626 7.214 5.401 9.386 9.953 23.381 15.165 36.941 14.769 27.29-2.908 48.253-23.739 63.362-45.08 2.493-4.268 8.801-9.235 4.74-14.353-9.046-12.181-19.736-23.041-29.764-34.391-1.832-2.323-4.608-4.721-3.739-8.008 69.726-28.159 142.38-50.293 217.07-60.359 9.197-1.794 18.584-1.794 27.932-2.323 19.924-3.192 40.208-1.813 60.321-2.04 16.541-0.379 32.82 3.153 48.986 5.873z"/>
 <path class="st1" d="m562.02 528.23c8.952-4.703 19.32-3.796 29.084-3.985 21.322-0.453 42.55 2.323 63.683 4.759 74.108 11.426 144.61 41.341 207.37 81.927 14.013 8.858 26.837 19.509 40.888 28.291 2.493-4.948 3.588-10.463 3.966-15.939 1.19-20.246-3.569-40.132-5.987-60.076 9.386 2.134 18.074 6.478 26.893 10.255 33.05 14.315 65.175 31.407 93.485 53.843 7.101 6.138 15.921 10.84 21.02 18.961 1.435 6.893-0.227 13.976-0.567 20.945-7.177 39.717-16.185 79.15-27.044 118.04-11.143 37.526-23.551 75.09-43.135 109.18-6.289 1.058-11.747-2.871-17.186-5.288-24.835-12.314-44.57-32.37-63.003-52.597-23.494-27.592-42.927-58.754-56.487-92.295-3.569-0.585-4.967 2.871-6.214 5.439-3.607 7.101-6.572 14.731-6.648 22.814-0.774 16.128-0.925 32.483 2.304 48.404-3.456 1.02-5.382-2.531-7.611-4.287-26.213-26.856-57.809-47.989-91.011-65.25-32.351-15.77-67.026-27.139-102.68-32.257-26.818-4.401-54.164-2.89-81.247-2.323-13.957 2.096-28.102 3.305-41.889 6.516-0.812 11.936 0.982 24.174-2.285 35.921-7.384 28.121-24.306 53.012-45.099 73.013-24.514 25.685-55.033 44.873-87.063 59.83-29.443 13.315-61.266 21.832-93.617 22.89-5.515 0.302-11.275-1.133-16.582 0.604 23.645 67.989 59.094 131.58 101.42 189.67 23.248 31.653 49.405 61.039 76.809 89.16 49.5 48.706 105.86 90.576 167.31 123 1.284 1.662 2.531 3.399 3.739 5.212-3.456 0.812-7.044 1.171-10.538 0.623-74.788-14.259-146.2-44.929-208.86-88.046-30.765-20.888-59.773-44.401-86.516-70.255-21.435-21.02-42.701-42.455-60.453-66.742-12.011-13.881-22.776-28.763-33.145-43.891-33.05-44.665-60.435-93.938-77.073-147.1-1.87-6.251-4.268-12.408-4.797-18.924-0.283-4.023-0.604-8.026-0.831-11.992 5.779 11.445 12.125 22.795 21.303 31.917 10.482 10.519 21.908 20.869 35.902 26.402-1.832-14.939-6.062-29.5-7.082-44.57-1.416-16.997-3.702-34.92 1.586-51.445 28.121-2.398 56.79 2.247 84.703-3.551 21.209-1.983 41.568-8.725 61.436-16.091 42.587-16.166 79.736-46.591 103.08-85.798 17.148-29.216 28.196-61.889 33.145-95.354 1.077-5.571 1.719-12.314 7.214-15.411 25.496-15.732 54.146-25.893 83.494-31.577 20.17-5.307 41.133-1.492 61.643-3.343-2.625-10.198-11.237-17.035-17.224-25.194-9.141-11.993-19.887-22.569-29.594-34.032z"/>
 <path class="st1" d="m1332.8 571.67c67.007-32.068 141.46-49.972 215.92-47.12 4.419 0.755 10.614-0.359 13.409 4.004-11.823 13.522-24.419 26.402-35.354 40.699-4.363 6.081-10.538 11.482-12.144 19.075 19.698-0.415 39.452-2.096 59.113 0.359 32.748 4.325 65.552 13.315 93.843 30.803 5.723 2.965 6.176 9.896 7.101 15.543 4.249 36.374 15.373 72.181 34.164 103.74 15.845 26.119 37.923 48.517 64.155 64.268 20.831 13.182 44.306 21.341 67.875 28.102 25.458 6.535 51.86 6.025 77.885 7.875 11.143 0.283 22.172-2.436 33.333-1.643 2.871 6.912 1.813 14.618 1.983 21.945-0.472 14.315 1.19 28.876-1.964 43.003-2.021 10.387-5.175 20.567-6.289 31.124 10.633-2.077 18.64-10.01 26.894-16.431 12.766-10.425 22.115-24.193 29.367-38.867 0.057 3.796 0.094 7.592 0.019 11.426-11.067 38.527-26.856 75.675-46.912 110.39-19.018 32.257-41.719 62.153-64.948 91.464-2.153 2.455-4.514 4.74-6.724 7.158-22.908 29.424-50.142 55.222-77.96 79.963-51.502 44.136-109.24 81.473-171.94 107.65-32.106 14.032-65.855 23.947-99.83 32.351-3.116 1.001-6.176-0.17-9.046-1.209 11.634-7.687 24.325-13.711 36.147-21.171 63.267-38.98 120.79-87.536 169.05-144.12 48.65-56.336 89.216-119.7 119.72-187.63 7.007-15.94 13.9-31.993 19.226-48.593-4.872-2.436-10.897-0.34-16.204-0.869-38.338-1.246-75.959-12.767-109.74-30.67-30.708-16.204-59.509-36.903-82.096-63.456-15.788-17.394-27.989-38.3-34.051-61.077-3.135-11.539-1.851-23.607-1.964-35.392-33.239-9.802-68.366-8.442-102.66-7.781-80.246 6.761-157.56 43.022-214.58 99.849-2.304 1.794-4.212 5.061-7.554 4.646 2.89-17.847 3.966-36.147 1.548-54.108-2.058-8.404-4.797-17.129-10.463-23.796-0.755 0.151-2.285 0.453-3.041 0.585-4.363 15.675-12.446 29.915-20.359 44.004-18.376 30.935-41.379 59.245-69.009 82.399-11.237 9.216-23.607 17.148-36.978 22.908-2.776 1.322-5.892 1.643-8.895 1.454-10.821-16.94-18.017-35.959-25.364-54.599-22.38-60.302-36.072-123.4-47.989-186.46 1.114-4.325 2.474-8.82 5.949-11.823 28.14-25.59 61.209-45.137 95.505-61.322 13.541-5.892 26.761-13.296 41.473-15.807-2.682 24.929-8.914 50.595-2.191 75.468 8.272-4.495 15.241-10.916 23.003-16.204 28.273-19.907 58.245-37.452 89.576-52.107z"/>
 <path class="st1" d="m1357.3 1007.9c47.762-13.975 96.771-23.362 146.02-30.217-0.359 1.228-1.058 3.664-1.397 4.892-29.122 26.459-58.395 53.012-90.878 75.354-13.862 9.915-29.934 15.826-45.609 22.134-15.807 6.289-33.749 7.214-50.085 2.568-18.678-5.855-34.958-17.111-50.727-28.385-1.133-1.907 0.038-3.985 1.794-4.91 26.967-20.133 59.111-31.37 90.877-41.436z"/>
 <path class="st1" d="m622.06 978.58c18.546 1.19 36.808 5.023 55.09 8.196 45.685 8.574 91.275 19.245 134.34 37.054 14.58 6.232 29.065 13.069 41.908 22.474 2.512 1.945 5.741 3.815 6.081 7.384-11.464 9.839-24.684 17.583-38.244 24.193-19.679 9.726-43.475 10.104-63.702 1.719-13.824-5.836-28.253-10.671-40.718-19.207-32.181-21.341-60.642-47.592-89.462-73.126-2.456-2.492-7.215-4.475-5.288-8.687z"/>
 <path class="st2" d="m1025.7 1005.8c19.282-2.814 38.943-5.458 58.357-2.323 25.987 1.926 51.483 8.952 74.976 20.17 2.55 1.681 6.969 2.209 7.932 5.477-6.667 7.8-15.241 13.805-21.36 22.153-33.598 38.13-57.828 83.853-73.9 131.9-2.361 7.422-4.381 15.033-8.008 21.983-11.048-34.542-23.437-69.009-42.191-100.25-11.671-19.434-23.777-39.075-40.34-54.769-4.287-9.33-13.692-14.259-19.603-22.134 19.926-10.952 41.89-17.846 64.137-22.209z"/>
 <path class="st1" d="m950.6 1075.2c9.348-9.292 19.018-18.565 30.595-25.08 16.563 15.694 28.669 35.335 40.34 54.769 18.754 31.237 31.143 65.703 42.191 100.25 3.626-6.95 5.647-14.561 8.008-21.983 16.072-48.045 40.302-93.768 73.9-131.9 30.274 21.794 55.184 50.708 73.504 83.135 19.49 33.05 32.824 69.349 42.568 106.36 1.19 5.118 2.852 10.198 3.059 15.524 0.227 2.908 0.548 5.817 1.171 8.744 1.813-0.264 3.607-0.661 5.383-1.228 0.661-1.851 1.209-3.702 1.662-5.571 2.021-9.783 6.175-18.924 9.046-28.442 4.306-13.258 6.421-27.195 11.313-40.208 3.758 2.38 4.023 7.044 5.383 10.916 12.276 36.223 21.832 73.447 27.46 111.31 3.23 23.966 4.344 48.555 0.302 72.484 1.907 17.111-2.606 33.976-6.856 50.387-14.542 54.259-47.29 105.14-95.6 135.03-3.909 3.305-7.271-1.662-10.198-3.74-30.576-27.441-67.196-48.48-106.89-59.415-13.692-3.456-27.592-6.95-41.813-6.365-24.381-1.19-48.215 5.666-70.935 13.843-32.276 12.956-62.021 31.955-87.819 55.241-1.907 2.55-5.231 1.473-7.328-0.132-46.289-29.613-78.47-78.244-93.409-130.63-4.684-17.677-9.594-35.77-7.724-54.221-1.851-9.972-2.531-20.113-3.362-30.217 1.624-51.69 14.127-102.42 30.217-151.39 1.7-4.57 2.399-9.651 5.383-13.598 0.737-0.094 2.21-0.264 2.946-0.359 0.397 5.741 0.51 11.577 2.568 17.073 4.854 18.451 10.104 36.865 17.205 54.599 0.453 2.493 3.097 2.436 5.118 2.587 2.115-17.507 8.026-34.24 12.861-51.105 16.958-50.178 41.132-99.527 79.754-136.68m92.502 235.77c-12.635 2.153-25.024 6.365-35.826 13.333-14.485 8.725-26.893 22.361-30.425 39.283-3.343 14.145 1.322 29.197 10.028 40.51 8.48 10.425 14.825 22.531 24.684 31.841 14.712 13.654 32.238 24.608 51.672 30.085 6.572 1.983 12.672-2.361 18.414-4.967 18.452-10.179 34.731-24.306 47.366-41.171 6.308-8.857 14.939-16.091 19.452-26.176 7.177-14.58 5.892-32.805-2.814-46.459-6.95-12.276-18.772-20.793-31.067-27.139-21.946-11.066-47.518-12.898-71.484-9.14z"/>
 <path class="st2" d="m128.61 1069.3c14.467 7.951 29.349 15.279 44.948 20.774 20.151 6.497 40.831 13.711 62.342 11.879 0.604-0.944 1.775-2.833 2.361-3.777 17.753 24.287 39.018 45.722 60.453 66.742 26.742 25.855 55.751 49.367 86.516 70.255 62.663 43.116 134.07 73.787 208.86 88.046 3.494 0.547 7.082 0.189 10.538-0.623-1.209-1.813-2.455-3.551-3.739-5.212 1.19 0.397 3.588 1.19 4.778 1.586-0.095 1.001-0.321 3.022-0.434 4.042-16.544 16.657-39.603 26.931-63.23 26.478 6.761 6.44 16.393 8.177 24.797 11.652 31.539 11.898 64.627 19.112 97.847 24.514 20.718 2.72 41.511 5.364 62.455 5.269 11.407 0.453 22.871-0.661 34.259 0.586 2.587 36.941 12.71 73.541 29.556 106.59 0.944 1.964 1.605 4.117 1.851 6.383-7.857 2.323-16.185 1.794-24.212 3.041-15.128 0.472-30.104 3.116-45.269 2.701-54.882 1.492-110.44-2.474-163.19-18.489-0.094-0.869-0.283-2.606-0.378-3.475 17.45-3.777 34.995-9.178 49.934-19.264 8.234-5.496 16.676-10.784 23.928-17.564 2.625-2.644 6.195-5.099 6.176-9.197-45.231-3.06-89.84-13.296-132.54-28.367-103.4-34.58-196.13-98.319-268.56-179.47-9.877-12.162-20.51-23.664-29.991-36.129-25.76-33.126-48.593-68.518-68.461-105.48-4.041-7.743-9.329-14.976-11.595-23.493z"/>
 <path class="st2" d="m1954 1088.9c14.599-5.25 28.253-12.502 42.021-19.528-5.099 12.824-13.031 24.287-19.339 36.525-20.17 36.638-44.25 70.973-70.085 103.82-19.075 22.417-38.055 45.08-60.17 64.627-56.053 53.825-122.3 96.997-194.18 126.54-53.56 21.209-109.65 37.734-167.38 41.379-0.415 4.703 4.117 7.233 7.026 10.179 20.151 17.413 44.533 30.198 70.727 35.486 0.737 0.567 2.209 1.719 2.965 2.285-11.162 5.647-23.91 6.78-35.883 9.896-43.909 10.274-89.254 11.067-134.13 10.009-21.114-2.285-42.342-2.455-63.475-4.457-0.642-6.176 3.588-11.275 5.722-16.714 13.919-30.689 22.758-63.853 25.439-97.451 19.566-1.398 39.32 0.51 58.867-1.643 49.575-3.834 98.621-14.769 145.16-32.295 5.345-2.134 11.086-3.853 15.297-8.008-13.428-0.396-27.328-2.04-39.112-8.952-9.481-5.401-19.679-10.991-25.666-20.453 2.021-1.266 4.306-3.853 6.95-2.795 2.871 1.039 5.93 2.209 9.046 1.209 33.976-8.404 67.724-18.319 99.83-32.351 62.701-26.176 120.44-63.513 171.94-107.65 27.819-24.741 55.052-50.538 77.96-79.963 0.227 0.812 0.661 2.436 0.869 3.249 23.911 2.268 47.537-4.361 69.615-12.935z"/>
 <path class="st3" d="m1264.8 1256.3c1.322 1.077 2.701 2.134 4.136 3.192 1.02-0.302 3.059-0.925 4.079-1.246-0.453 1.87-1.001 3.72-1.662 5.571-1.775 0.567-3.569 0.963-5.383 1.228-0.623-2.928-0.944-5.837-1.17-8.745z"/>
 <path class="st0" d="m1043.1 1311c23.966-3.758 49.537-1.926 71.483 9.141 12.295 6.346 24.117 14.863 31.067 27.139 8.706 13.654 9.99 31.879 2.814 46.459-4.514 10.085-13.145 17.318-19.452 26.176-12.635 16.865-28.914 30.992-47.366 41.171-5.741 2.606-11.841 6.95-18.414 4.967-19.433-5.477-36.959-16.431-51.672-30.085-9.858-9.311-16.204-21.416-24.684-31.841-8.706-11.313-13.371-26.365-10.028-40.51 3.532-16.922 15.94-30.557 30.425-39.283 10.804-6.97 23.193-11.181 35.827-13.334m0.17 23.664c-8.933 2.871-21.926 8.008-21.058 19.358-0.604 8.159 7.894 12.521 14.032 15.807 16.506 6.667 35.298 6.969 52.238 1.7 7.875-2.776 15.486-7.857 19.018-15.656 0.906-6.572-4.023-12.521-9.235-15.826-16.657-9.085-36.845-9.462-54.995-5.383z"/>
 <path class="st2" d="m1043.3 1334.7c18.149-4.079 38.338-3.702 54.995 5.383 5.213 3.305 10.142 9.254 9.235 15.826-3.532 7.8-11.143 12.88-19.018 15.656-16.94 5.269-35.732 4.967-52.238-1.7-6.138-3.286-14.636-7.649-14.032-15.807-0.868-11.351 12.125-16.488 21.058-19.358z"/>
</svg>
